<?xml version="1.0" encoding="utf-8"?>
<!-- Generator: Adobe Illustrator 16.0.0, SVG Export Plug-In . SVG Version: 6.00 Build 0)  -->
<!DOCTYPE svg PUBLIC "-//W3C//DTD SVG 1.1//EN" "http://www.w3.org/Graphics/SVG/1.1/DTD/svg11.dtd">
<svg version="1.1" id="Layer_1" xmlns="http://www.w3.org/2000/svg" xmlns:xlink="http://www.w3.org/1999/xlink" x="0px" y="0px"
	 width="103.5px" height="103.5px" viewBox="0 0 103.5 103.5" enable-background="new 0 0 103.5 103.5" xml:space="preserve">
<path fill-rule="evenodd" clip-rule="evenodd" fill="#FFFFFF" stroke="#5B5B5B" stroke-linecap="round" stroke-linejoin="round" stroke-miterlimit="10" d="
	M30.181,43.089c0.058-0.168,0.122-0.335,0.17-0.506c0.018-0.059,0.034-0.146-0.05-0.182c-0.08-0.034-0.133,0.021-0.179,0.074
	c-0.144,0.167-0.262,0.352-0.35,0.555c-0.065,0.154-0.174,0.232-0.347,0.244c-0.196,0.015-0.385,0.092-0.585,0.081
	c-0.014-0.001-0.033-0.002-0.04,0.006c-0.183,0.188-0.245,0.143-0.233-0.108c0.005-0.096-0.086-0.118-0.166-0.101
	c-0.094,0.017-0.184,0.051-0.276,0.074c-0.083,0.02-0.154-0.009-0.194-0.081c-0.044-0.078,0.05-0.077,0.082-0.111
	c0.105-0.11,0.098-0.234,0.004-0.329c-0.12-0.123-0.265-0.192-0.459-0.135c-0.173,0.05-0.23,0.159-0.24,0.312
	c-0.021,0.267-0.209,0.421-0.38,0.59c-0.062,0.061-0.116,0.051-0.181,0.001c-0.158-0.127-0.329-0.226-0.545-0.204
	c-0.02,0.002-0.051,0-0.059-0.011c-0.264-0.384-0.762-0.491-1.033-0.866c-0.09-0.125-0.217-0.016-0.326-0.026
	c-0.096-0.011-0.096,0.087-0.1,0.151c-0.016,0.201-0.084,0.3-0.31,0.222c-0.075-0.025-0.183-0.041-0.25,0.044
	c-0.077,0.099,0.019,0.172,0.06,0.238c0.111,0.176,0.078,0.346-0.012,0.507c-0.114,0.209-0.105,0.267,0.096,0.392
	c0.059,0.036,0.115,0.073,0.184,0.115c-0.022,0.026-0.037,0.06-0.055,0.062c-0.328,0.024-0.249,0.307-0.302,0.493
	c-0.026,0.094,0.076,0.167,0.159,0.221c0.074,0.051,0.151,0.096,0.216,0.155c0.048,0.043,0.069,0.115,0.003,0.16
	c-0.053,0.034-0.108,0.007-0.133-0.055c-0.028-0.07-0.064-0.12-0.152-0.107c-0.102,0.016-0.157,0.054-0.108,0.165
	c0.042,0.094,0.088,0.188,0.134,0.279c0.067,0.136-0.005,0.178-0.123,0.179c-0.094,0.001-0.167-0.055-0.238-0.112
	c-0.269-0.214-0.539-0.428-0.809-0.643c-0.032-0.025-0.068-0.052-0.086-0.088c-0.078-0.151-0.146-0.312-0.237-0.003
	c-0.019,0.066-0.087,0.057-0.135,0.011c-0.214-0.202-0.485-0.351-0.604-0.639c-0.122-0.301-0.335-0.471-0.657-0.509
	c-0.125-0.016-0.218-0.072-0.243-0.21c-0.007-0.042-0.023-0.087,0.008-0.117c0.059-0.057,0.095-0.12,0.002-0.161
	c-0.074-0.034-0.17-0.114-0.247,0.019c-0.054,0.091-0.166,0.16-0.072,0.288c0.048,0.067-0.021,0.096-0.056,0.134
	c-0.048,0.048-0.127,0.075-0.137,0.148c-0.01,0.068-0.015,0.129-0.104,0.095c-0.077-0.028-0.062-0.075-0.033-0.145
	c0.137-0.337,0.257-0.683,0.392-1.019c0.057-0.143,0.094-0.281,0.048-0.437c0.109-0.001,0.129,0.088,0.162,0.147
	c0.162,0.285,0.374,0.526,0.62,0.74c0.042,0.037,0.078,0.091,0.14,0.049c0.083-0.055,0.009-0.106-0.016-0.153
	c-0.208-0.388-0.416-0.775-0.626-1.162c-0.025-0.048-0.053-0.119-0.093-0.131c-0.313-0.09-0.363-0.374-0.448-0.619
	c-0.071-0.206-0.206-0.267-0.391-0.24c-0.188,0.026-0.25-0.088-0.23-0.221c0.058-0.421-0.223-0.725-0.351-1.081
	c-0.017-0.047-0.073-0.081-0.116-0.114c-0.418-0.336-0.837-0.675-1.26-1.008c-0.077-0.062-0.14-0.13-0.183-0.218
	c-0.027-0.055-0.062-0.108-0.086-0.165c-0.333-0.792-0.864-1.423-1.522-1.97c-0.42-0.348-0.677-0.848-1.009-1.277
	c-0.072-0.095-0.062-0.218,0.028-0.322c0.266-0.304,0.291-0.669,0.243-1.044c-0.056-0.434-0.205-0.829-0.426-1.214
	c-0.194-0.339-0.176-0.76-0.298-1.13c-0.108-0.332-0.026-0.654,0.012-0.979c0.053-0.438,0.176-0.855,0.399-1.239
	c0.031-0.051,0.062-0.108,0.023-0.174c-0.189-0.329-0.135-0.692-0.146-1.047c-0.002-0.089,0.011-0.186-0.058-0.256
	c-0.26-0.26-0.24-0.604-0.26-0.925c-0.015-0.236-0.062-0.428-0.247-0.581c-0.087-0.071-0.146-0.162-0.181-0.271
	c-0.151-0.476-0.483-0.843-0.763-1.242c-0.077-0.108-0.139-0.252-0.33-0.226c-0.065,0.01-0.067-0.091-0.061-0.153
	c0.035-0.371-0.135-0.616-0.46-0.774c-0.06-0.03-0.115-0.076-0.164-0.124c-0.389-0.372-0.774-0.748-1.162-1.121
	c-0.056-0.053-0.116-0.105-0.097-0.192c0.11-0.534-0.054-1.028-0.229-1.52c-0.043-0.125-0.031-0.235,0.009-0.358
	c0.183-0.56,0.388-1.106,0.672-1.627c0.108-0.198,0.212-0.408,0.299-0.622c0.025,0.008,0.04,0.01,0.047,0.017
	c0.077,0.084,0.144,0.215,0.275,0.179c0.136-0.037,0.157-0.183,0.185-0.303c0.079-0.365,0.211-0.69,0.591-0.851
	c0.085-0.036,0.156-0.112,0.225-0.179c0.129-0.127,0.098-0.28-0.068-0.364c-0.187-0.095-0.375-0.024-0.444,0.17
	c-0.053,0.153-0.159,0.271-0.248,0.401c-0.023,0.036-0.055,0.073-0.099,0.044c-0.047-0.03-0.015-0.074-0.001-0.11
	c0.054-0.141,0.103-0.285,0.167-0.422c0.154-0.322,0.312-0.642,0.478-0.96c0.167-0.326,0.186-0.649,0.092-1.008
	c-0.068-0.267-0.079-0.559-0.004-0.838c0.184-0.684,0.382-1.363,0.553-2.049c0.099-0.393,0-0.794-0.016-1.191
	C14.017,10.089,14.005,9.998,14,9.91c-0.005-0.069-0.013-0.146,0.099-0.131c0.05,0.005,0.075-0.028,0.088-0.07
	c0.018-0.062-0.03-0.086-0.076-0.103c-0.146-0.056-0.196-0.17-0.223-0.315c-0.083-0.456-0.177-0.909-0.263-1.363
	c-0.016-0.084-0.053-0.139-0.133-0.168c-0.07-0.027-0.142-0.051-0.21-0.084c-0.248-0.115-0.351-0.354-0.236-0.591
	c0.148-0.308,0.191-0.641,0.269-0.966c0.056-0.234,0.128-0.457,0.021-0.695c-0.042-0.094,0.003-0.146,0.106-0.127
	c0.55,0.096,1.107,0.002,1.661,0.087c0.235,0.036,0.48-0.004,0.721,0.004c0.793,0.025,1.588,0.034,2.379,0.092
	c0.72,0.053,1.442,0.027,2.163,0.069c1.112,0.065,2.229,0.07,3.34,0.138c0.729,0.046,1.459,0.009,2.186,0.074
	c0.729,0.067,1.464,0.043,2.195,0.091c1.103,0.069,2.211,0.032,3.312,0.125c0.522,0.044,1.043-0.001,1.563,0.043
	c0.046,0.047,0.104,0.026,0.156,0.026c0.46-0.002,0.921-0.014,1.381-0.009c0.575,0.003,1.15-0.076,1.728-0.031
	c0.11,0.055,0.229,0.036,0.345,0.038c0.709,0.009,1.418,0.015,2.127,0.022c0.076,0.044,0.16,0.021,0.24,0.021
	c0.431,0.003,0.861,0.003,1.29,0.005c0.16-0.062,0.326-0.023,0.489-0.021c0.599,0.001,1.199,0.012,1.801,0.014
	c0.117,0,0.168,0.026,0.167,0.161c-0.016,3.582-0.027,7.161-0.041,10.743c0,0.013-0.004,0.027-0.006,0.041
	c-0.037,0.041-0.024,0.091-0.024,0.138c0,0.821-0.001,1.641,0.005,2.461c0.001,0.281-0.023,0.564,0.017,0.845
	c-0.006,2.006-0.015,4.013-0.019,6.019c-0.005,1.663-0.008,3.325-0.013,4.986c0,0.083-0.006,0.166-0.008,0.248
	c-0.052,0.267-0.021,0.535-0.022,0.802c-0.001,0.709-0.02,1.419,0.019,2.128c0.347,0.367,0.735,0.685,1.11,1.021
	c2.878,2.596,5.76,5.188,8.643,7.782c2.553,2.298,5.105,4.594,7.658,6.892c2.837,2.552,5.668,5.106,8.503,7.656
	c2.415,2.174,4.831,4.346,7.245,6.52c2.651,2.384,5.3,4.774,7.957,7.151c0.24,0.216,0.216,0.483,0.252,0.742
	c0.021,0.152,0.023,0.313-0.02,0.472c-0.031,0.102,0.005,0.214,0.062,0.294c0.274,0.393,0.503,0.825,0.875,1.146
	c0.056,0.048,0.118,0.102,0.186,0.126c0.322,0.116,0.408,0.366,0.398,0.672c0,0.041,0.021,0.06,0.039,0.088
	c0.168,0.292,0.326,0.59,0.502,0.876c0.135,0.219,0.181,0.434,0.102,0.685c-0.072,0.235,0.062,0.369,0.303,0.321
	c0.104-0.021,0.183-0.001,0.27,0.06c0.336,0.239,0.68,0.469,1.019,0.706c0.166,0.117,0.276,0.289,0.383,0.454
	c0.067,0.106,0.069,0.246-0.041,0.361c-0.222,0.229-0.433,0.464-0.592,0.75c-0.099,0.182-0.322,0.274-0.5,0.392
	c-0.247,0.167-0.49,0.344-0.788,0.428c-0.159,0.043-0.23,0.192-0.243,0.365c-0.024,0.293-0.058,0.585-0.229,0.841
	c-0.048,0.07-0.096,0.13-0.168,0.178c-0.253,0.168-0.278,0.344-0.12,0.611c0.055,0.091,0.069,0.208,0.096,0.313
	c0.018,0.062-0.019,0.078-0.076,0.09c-0.118,0.026-0.115,0.101-0.104,0.216c0.036,0.416,0.25,0.78,0.317,1.187
	c0.021,0.128,0.015,0.197-0.123,0.254c-0.224,0.095-0.146,0.316-0.12,0.471c0.079,0.448,0.021,0.845-0.26,1.223
	c-0.173,0.235-0.355,0.483-0.382,0.802c-0.007,0.094-0.075,0.179-0.186,0.188c-0.05,0.005-0.091,0.015-0.134,0.042
	c-0.32,0.201-0.337,0.236-0.238,0.598c0.028,0.113,0.058,0.23,0.11,0.332c0.257,0.471,0.229,0.981,0.202,1.488
	c-0.01,0.161-0.151,0.283-0.181,0.451c-0.024,0.137-0.043,0.254,0.072,0.357c0.034,0.031,0.06,0.077,0.079,0.121
	c0.161,0.37,0.479,0.429,0.822,0.376c0.135-0.021,0.252-0.112,0.408-0.081c0.094,0.017,0.156,0.04,0.229,0.104
	c0.486,0.418,0.396,0.98,0.396,1.521c0,0.036-0.007,0.067-0.038,0.09c-0.192,0.141-0.233,0.365-0.314,0.566
	c-0.13,0.319-0.433,0.526-0.784,0.502c-0.178-0.012-0.372,0.053-0.531-0.091c-0.045-0.041-0.104-0.012-0.122,0.034
	c-0.118,0.284-0.385,0.22-0.599,0.255c-0.589,0.094-1.178,0.165-1.77,0.243c-0.452,0.06-0.904,0.115-1.355,0.175
	c-0.474,0.064-0.945,0.135-1.419,0.197c-0.459,0.062-0.92,0.115-1.38,0.176c-0.562,0.073-1.125,0.146-1.685,0.223
	c-0.462,0.062-0.921,0.13-1.38,0.19c-0.577,0.075-1.154,0.145-1.729,0.219c-0.488,0.062-0.976,0.129-1.464,0.192
	c-0.832,0.112-1.663,0.226-2.495,0.332c-0.584,0.074-1.171,0.137-1.755,0.21c-0.61,0.076-1.222,0.151-1.829,0.238
	c-0.188,0.026-0.317,0.022-0.349-0.21c-0.02-0.161-0.113-0.308-0.125-0.476l0.012-0.01c0.048,0.065,0.089,0.137,0.145,0.196
	c0.036,0.037,0.048,0.126,0.137,0.081c0.069-0.034,0.146-0.067,0.13-0.161c-0.069-0.409-0.158-0.81-0.521-1.076
	c-0.029-0.021-0.061-0.038-0.087-0.057c-0.305-0.206-0.411-0.183-0.61,0.135c-0.094-0.13-0.089-0.197,0.008-0.294
	c0.057-0.058,0.103-0.129,0.158-0.19c0.099-0.112,0.089-0.206-0.039-0.288c-0.137-0.087-0.163-0.082-0.267,0.078
	c-0.228-0.238-0.23-0.452,0.013-0.655c0.094-0.077,0.076-0.155,0.062-0.251c-0.164-1.226-0.646-2.331-1.354-3.328
	c-0.301-0.423-0.724-0.758-1.072-1.147c-0.358-0.398-0.743-0.754-1.243-0.963c-0.153-0.064-0.233-0.213-0.331-0.334
	c-0.195-0.243-0.397-0.474-0.664-0.645c-0.189-0.12-0.382-0.24-0.52-0.434c-0.069-0.098-0.226-0.148-0.31-0.076
	c-0.135,0.121-0.188,0.022-0.27-0.041c-0.296-0.219-0.555-0.474-0.773-0.77c-0.231-0.312-0.582-0.478-0.931-0.519
	c-0.188-0.024-0.301-0.188-0.502-0.153c-0.263,0.044-0.352,0.109-0.358,0.375c-0.003,0.112,0.058,0.265-0.07,0.32
	c-0.13,0.057-0.267-0.05-0.344-0.138c-0.127-0.139-0.278-0.168-0.442-0.175c-0.112-0.005-0.175-0.051-0.219-0.153
	c-0.048-0.112,0.036-0.133,0.097-0.191c0.189-0.185,0.199-0.421,0.12-0.65c-0.192-0.552-0.401-1.097-0.817-1.533
	c-0.171-0.178-0.363-0.283-0.61-0.293c-0.553-0.025-1.102,0.019-1.637,0.164c-0.034,0.007-0.082,0-0.099,0.02
	c-0.151,0.199-0.26,0.064-0.393-0.033c-0.165-0.123-0.38-0.112-0.571-0.139c-0.27-0.035-0.493-0.149-0.723-0.271
	c-0.261-0.138-0.501-0.312-0.785-0.409c-0.031-0.009-0.074-0.043-0.094-0.031c-0.202,0.116-0.276-0.078-0.396-0.156
	s-0.192-0.238-0.382-0.199c-0.058,0.012-0.097-0.07-0.123-0.125c-0.118-0.242-0.156-0.507-0.199-0.765
	c-0.034-0.197-0.12-0.289-0.303-0.289c-0.195-0.001-0.33-0.077-0.401-0.257c-0.035-0.087-0.117-0.154-0.187-0.142
	c-0.161,0.029-0.248-0.07-0.334-0.16c-0.297-0.312-0.681-0.498-1.057-0.669c-0.294-0.135-0.647-0.14-0.972-0.084
	c-0.278,0.048-0.543-0.002-0.812-0.032c-0.068-0.007-0.137-0.037-0.201-0.028c-0.475,0.058-0.895-0.114-1.307-0.306
	c-0.16-0.075-0.321-0.134-0.497-0.103c-0.293,0.053-0.568-0.072-0.854-0.082c-0.667-0.023-1.327,0.039-1.975,0.219
	c-0.404,0.113-0.436,0.082-0.616-0.29c-0.093-0.189-0.144-0.4-0.319-0.544c-0.19-0.159-0.387-0.273-0.648-0.226
	c-0.149,0.027-0.293-0.226-0.238-0.421c0.068-0.245,0.148-0.487,0.269-0.711c0.071-0.135,0.073-0.262-0.004-0.39
	c-0.217-0.355-0.192-0.721-0.021-1.08c0.073-0.158,0.036-0.259-0.075-0.382c-0.132-0.148-0.367-0.239-0.306-0.516
	c0.089-0.399,0.1-0.815,0.304-1.188c0.161-0.296,0.064-0.586-0.069-0.864c-0.016-0.033-0.061-0.057-0.097-0.071
	c-0.194-0.087-0.392-0.168-0.585-0.256c-0.055-0.024-0.114-0.049-0.149,0.006c-0.094,0.144-0.184,0.085-0.289,0.017
	c-0.125-0.084-0.262-0.154-0.393-0.23c-0.257-0.152-0.385-0.474-0.317-0.77c0.042-0.18,0.174-0.281,0.311-0.369
	c0.151-0.097,0.181-0.214,0.116-0.366c-0.097-0.236-0.22-0.459-0.347-0.681c-0.05-0.083-0.133-0.101-0.212-0.113
	c-0.583-0.088-1.01-0.399-1.303-0.904c-0.152-0.262-0.32-0.515-0.454-0.785c-0.097-0.191-0.233-0.292-0.439-0.306
	c-0.222-0.016-0.409-0.121-0.587-0.234c-0.264-0.167-0.346-0.442-0.322-0.737c0.021-0.274-0.093-0.479-0.261-0.672
	c-0.033-0.036-0.071-0.067-0.112-0.09c-0.51-0.278-0.778-0.711-0.833-1.283c-0.025-0.274-0.157-0.454-0.419-0.543
	c-0.19-0.062-0.296-0.202-0.367-0.387c-0.281-0.727-0.782-1.284-1.388-1.757c-0.077-0.06-0.154-0.11-0.261-0.099
	c-0.15,0.02-0.221-0.065-0.218-0.204c0.001-0.125-0.048-0.218-0.149-0.276c-0.294-0.173-0.364-0.45-0.3-0.748
	c0.076-0.354-0.075-0.659-0.148-0.983c-0.013-0.059-0.042-0.115-0.063-0.173c-0.058-0.159-0.149-0.312,0.074-0.438
	c0.094-0.052,0.076-0.168-0.016-0.244c-0.025-0.021-0.057-0.037-0.086-0.055c-0.252-0.154-0.248-0.437,0.002-0.604
	c0.057-0.039,0.083-0.02,0.121,0.017c0.112,0.106,0.176,0.312,0.395,0.208c0.222-0.107,0.362-0.287,0.416-0.528
	c0.043-0.199,0.083-0.399,0.123-0.596c0.076-0.001,0.09,0.057,0.123,0.087c0.051,0.047,0.104,0.066,0.17,0.034
	c0.077-0.039,0.053-0.108,0.038-0.164c-0.033-0.135-0.027-0.298-0.224-0.326c-0.047-0.006-0.062-0.049-0.038-0.096
	c0.197-0.379-0.01-0.698-0.149-1.03c-0.158-0.375-0.371-0.702-0.721-0.929c-0.154-0.1-0.276-0.073-0.378,0.051
	c-0.07,0.085-0.117,0.117-0.217,0.044c-0.129-0.094-0.271-0.043-0.39,0.019c-0.117,0.062-0.212,0.043-0.328,0.005
	c-0.52-0.173-0.823-0.579-1.117-1c-0.152-0.22-0.235-0.505-0.539-0.584c-0.23-0.38-0.624-0.645-0.769-1.084
	c-0.052-0.154-0.002-0.31,0.047-0.444c0.26-0.697-0.05-1.317-0.24-1.953c-0.032-0.108-0.122-0.22-0.275-0.215
	c-0.044,0.002-0.078-0.01-0.099-0.055c-0.115-0.25-0.111-0.52-0.037-0.762c0.036-0.115,0.141-0.226,0.161-0.364
	c0.01-0.067,0.024-0.143,0.005-0.203c-0.117-0.351-0.049-0.709-0.055-1.063c-0.002-0.095,0.006-0.182,0.125-0.2
	c0.048-0.007,0.074-0.041,0.081-0.082c0.026-0.124,0.115-0.093,0.194-0.081c0.02,0.003,0.037,0.019,0.056,0.029
	c0.095,0.042,0.257-0.062,0.291,0.075c0.047,0.194,0.146,0.393,0.077,0.6c-0.031,0.097-0.023,0.193-0.012,0.285
	c0.028,0.212-0.077,0.416-0.008,0.63c0.114,0.354,0.392,0.522,0.704,0.654c0.044,0.02,0.107,0.01,0.132,0.051
	c0.104,0.169,0.313,0.202,0.436,0.327c0.195,0.197,0.447,0.335,0.599,0.575c0.165,0.257,0.758,0.454,1.009,0.245
	c0.143-0.12,0.148-0.175-0.011-0.271c-0.053-0.031-0.11-0.072-0.169-0.076c-0.139-0.007-0.228-0.072-0.288-0.192
	c-0.007-0.017-0.026-0.039-0.043-0.043c-0.327-0.083-0.303-0.419-0.452-0.631c-0.166-0.234-0.13-0.506-0.14-0.775
	c-0.01-0.279-0.156-0.505-0.385-0.666c-0.055-0.04-0.122-0.058-0.148-0.135c0.054-0.047,0.175-0.035,0.162-0.144
	c-0.011-0.089-0.098-0.106-0.167-0.135c-0.178-0.073-0.354-0.149-0.541-0.2c-0.204-0.056-0.27-0.248-0.11-0.383
	c0.216-0.188,0.174-0.409,0.099-0.623c-0.075-0.208-0.227-0.349-0.473-0.318c-0.157,0.019-0.167-0.115-0.225-0.197
	c-0.068-0.096,0.031-0.126,0.079-0.178c0.113-0.125,0.13-0.32,0.229-0.426c0.087-0.091,0.303-0.009,0.442-0.096
	c0.076-0.046,0.148-0.101,0.224-0.15c0.251-0.162,0.421-0.171,0.651,0.016c0.26,0.207,0.523,0.089,0.77,0.016
	c0.264-0.078,0.478-0.12,0.776-0.044c0.466,0.119,0.942,0.248,1.425,0.312c0.209,0.027,0.414,0.107,0.633,0.05
	c0.11-0.029,0.169-0.067,0.091-0.18c-0.021-0.031-0.032-0.055,0.005-0.084c0.128-0.094,0.183-0.216,0.161-0.376
	c-0.009-0.073,0.053-0.066,0.101-0.067c0.09-0.001,0.181,0.004,0.27-0.006c0.084-0.01,0.128,0.025,0.151,0.101
	c0.075,0.228,0.276,0.34,0.474,0.387c0.151,0.035,0.219,0.111,0.295,0.216c0.073,0.104,0.131,0.296,0.298,0.196
	c0.157-0.094,0.051-0.266-0.016-0.364c-0.137-0.203-0.306-0.39-0.562-0.45c-0.12-0.026-0.209-0.06-0.235-0.208
	c-0.039-0.21-0.2-0.232-0.381-0.201c-0.184,0.031-0.367,0.057-0.551,0.084C30.22,43.106,30.199,43.097,30.181,43.089z"/>
<circle fill-rule="evenodd" clip-rule="evenodd" fill="#DB4040" stroke="#DB4040" stroke-linecap="round" stroke-linejoin="round" stroke-miterlimit="10" cx="43.96" cy="74.858" r="1.152"/>
</svg>
