<?xml version="1.0" encoding="utf-8"?>
<!-- Generator: Adobe Illustrator 16.0.0, SVG Export Plug-In . SVG Version: 6.00 Build 0)  -->
<!DOCTYPE svg PUBLIC "-//W3C//DTD SVG 1.1//EN" "http://www.w3.org/Graphics/SVG/1.1/DTD/svg11.dtd">
<svg version="1.1" id="Layer_1" xmlns="http://www.w3.org/2000/svg" xmlns:xlink="http://www.w3.org/1999/xlink" x="0px" y="0px"
	 width="318px" height="244px" viewBox="0 0 318 244" enable-background="new 0 0 318 244" xml:space="preserve">
<g>
	
		<rect x="59.608" y="15.838" fill="#5B5B5B" stroke="#FFFFFF" stroke-linecap="round" stroke-linejoin="round" stroke-miterlimit="10" width="196.808" height="143.383"/>
	<rect x="70.562" y="26.029" fill="#FFFFFF" width="176" height="123"/>
	<polygon fill="#5B5B5B" stroke="#FFFFFF" stroke-linecap="round" stroke-linejoin="round" stroke-miterlimit="10" points="
		59.608,159.103 256.416,159.103 305.417,217.052 11.563,217.052 	"/>
	<path fill="#5B5B5B" stroke="#FFFFFF" stroke-linecap="round" stroke-linejoin="round" stroke-miterlimit="10" d="M11.929,216.687
		c-0.23,0.575-0.365,1.2-0.365,1.857v4.618c0,2.762,2.239,5,5,5h284.873c2.762,0,5-2.238,5-5v-4.618
		c0-0.657-0.135-1.282-0.365-1.857H11.929z"/>
	<path fill="#FFFFFF" stroke="#5B5B5B" stroke-linecap="round" stroke-linejoin="round" stroke-miterlimit="10" d="M237.215,135.101
		c0,0.552-0.448,1-1,1H81.786c-0.552,0-1-0.448-1-1V39.957c0-0.553,0.448-1,1-1h154.429c0.552,0,1,0.447,1,1V135.101z"/>
	
		<rect x="130.727" y="107.196" fill="#F1B903" stroke="#F1B903" stroke-linecap="round" stroke-linejoin="round" stroke-miterlimit="10" width="56.547" height="16.429"/>
	<g>
		
			<rect x="114.779" y="70.529" fill="none" stroke="#5B5B5B" stroke-linecap="round" stroke-linejoin="round" stroke-miterlimit="10" width="8.809" height="8.809"/>
		
			<rect x="114.779" y="90.076" fill="none" stroke="#5B5B5B" stroke-linecap="round" stroke-linejoin="round" stroke-miterlimit="10" width="8.809" height="8.809"/>
		
			<rect x="140.514" y="70.529" fill="none" stroke="#5B5B5B" stroke-linecap="round" stroke-linejoin="round" stroke-miterlimit="10" width="8.809" height="8.809"/>
		
			<rect x="140.514" y="90.076" fill="none" stroke="#5B5B5B" stroke-linecap="round" stroke-linejoin="round" stroke-miterlimit="10" width="8.809" height="8.809"/>
		
			<rect x="166.248" y="70.529" fill="none" stroke="#5B5B5B" stroke-linecap="round" stroke-linejoin="round" stroke-miterlimit="10" width="8.809" height="8.809"/>
		
			<rect x="166.248" y="90.076" fill="none" stroke="#5B5B5B" stroke-linecap="round" stroke-linejoin="round" stroke-miterlimit="10" width="8.809" height="8.809"/>
		
			<rect x="191.982" y="70.529" fill="none" stroke="#5B5B5B" stroke-linecap="round" stroke-linejoin="round" stroke-miterlimit="10" width="8.809" height="8.809"/>
		
			<rect x="191.982" y="90.076" fill="none" stroke="#5B5B5B" stroke-linecap="round" stroke-linejoin="round" stroke-miterlimit="10" width="8.809" height="8.809"/>
	</g>
	<path fill="#2074A8" d="M236.704,45.909v-5.951c0-0.553-0.447-1-1-1H81.276c-0.553,0-1,0.447-1,1v5.951H236.704z"/>
	<circle fill="#FFFFFF" cx="84.159" cy="42.514" r="1.617"/>
	<circle fill="#FFFFFF" cx="90.809" cy="42.514" r="1.617"/>
	<circle fill="#FFFFFF" cx="98.012" cy="42.514" r="1.618"/>
	<polyline fill="none" stroke="#B82125" stroke-width="2" stroke-linecap="round" stroke-miterlimit="10" points="116.861,72.648 
		119.601,77.367 127.83,66.544 	"/>
	<polygon fill="#FFFFFF" points="70.562,166.909 250.017,166.909 273.445,195.48 48.588,195.48 	"/>
	<text transform="matrix(1 0 0 1 136.9189 119.8994)" fill="#FFFFFF" font-family="'NotoSans-Bold'" font-size="11.7182">ORDER</text>
	<polygon fill="#5B5B5B" points="181.364,137.366 175.034,127.093 179.172,125.852 168.75,119.411 168.75,131.723 172.543,128.15 
		179.087,138.771 	"/>
	<polyline fill="none" stroke="#B82125" stroke-width="2" stroke-linecap="round" stroke-miterlimit="10" points="167.455,92.208 
		170.194,96.927 178.424,86.104 	"/>
	<polyline fill="none" stroke="#B82125" stroke-width="2" stroke-linecap="round" stroke-miterlimit="10" points="142.191,92.208 
		144.931,96.927 153.16,86.104 	"/>
</g>
</svg>
