<?xml version="1.0" encoding="utf-8"?>
<!-- Generator: Adobe Illustrator 16.0.0, SVG Export Plug-In . SVG Version: 6.00 Build 0)  -->
<!DOCTYPE svg PUBLIC "-//W3C//DTD SVG 1.1//EN" "http://www.w3.org/Graphics/SVG/1.1/DTD/svg11.dtd">
<svg version="1.1" id="Layer_1" xmlns="http://www.w3.org/2000/svg" xmlns:xlink="http://www.w3.org/1999/xlink" x="0px" y="0px"
	 width="184px" height="178.902px" viewBox="0 0 184 178.902" enable-background="new 0 0 184 178.902" xml:space="preserve">
<g>
	<rect x="14.196" y="35.267" fill="#FFFFFF" width="156.939" height="122.229"/>
	<polygon fill="#5B5B5B" stroke="#5B5B5B" stroke-linecap="round" stroke-linejoin="round" stroke-miterlimit="10" points="
		123.129,34.137 114.204,25.535 50.989,88.22 14.196,51.426 14.196,69.121 42.143,97.067 14.196,125.013 14.196,142.708 
		50.99,105.914 102.572,157.497 120.671,157.497 59.837,97.067 	"/>
	
		<rect x="97.334" y="80.766" transform="matrix(0.7071 -0.7071 0.7071 0.7071 -43.9417 115.6103)" fill="#2074A8" width="40.512" height="60.168"/>
	
		<rect x="17.706" y="124.328" transform="matrix(0.7071 -0.7071 0.7071 0.7071 -82.0053 52.6769)" fill="#FFFFFF" width="9.756" height="2"/>
	
		<rect x="27.724" y="114.31" transform="matrix(0.7071 -0.7071 0.7071 0.7071 -71.9877 56.8263)" fill="#FFFFFF" width="9.756" height="2"/>
	
		<rect x="37.741" y="104.293" transform="matrix(0.7071 -0.7071 0.7071 0.7071 -61.9702 60.9757)" fill="#FFFFFF" width="9.756" height="2"/>
	
		<rect x="52.759" y="90.275" transform="matrix(0.7071 -0.7071 0.7071 0.7071 -47.6597 67.4891)" fill="#FFFFFF" width="9.756" height="2"/>
	
		<rect x="62.776" y="80.257" transform="matrix(0.7071 -0.7071 0.7071 0.7071 -37.6421 71.6385)" fill="#FFFFFF" width="9.756" height="2"/>
	
		<rect x="72.794" y="70.24" transform="matrix(0.7071 -0.7071 0.7071 0.7071 -27.6245 75.7879)" fill="#FFFFFF" width="9.756" height="2"/>
	<g>
		
			<rect x="12.143" y="63.231" transform="matrix(0.7071 0.7071 -0.7071 0.7071 50.4033 6.7775)" fill="#FFFFFF" width="9.756" height="2"/>
		
			<rect x="22.16" y="73.249" transform="matrix(0.7071 0.7071 -0.7071 0.7071 60.4209 2.6281)" fill="#FFFFFF" width="9.756" height="2"/>
		
			<rect x="32.178" y="83.266" transform="matrix(0.7071 0.7071 -0.7071 0.7071 70.4385 -1.5213)" fill="#FFFFFF" width="9.756" height="2"/>
		
			<rect x="42.195" y="93.284" transform="matrix(0.7071 0.7071 -0.7071 0.7071 80.4561 -5.6708)" fill="#FFFFFF" width="9.756" height="2"/>
		
			<rect x="52.213" y="103.301" transform="matrix(0.7071 0.7071 -0.7071 0.7071 90.4736 -9.8202)" fill="#FFFFFF" width="9.756" height="2"/>
		
			<rect x="62.23" y="113.319" transform="matrix(0.7071 0.7071 -0.7071 0.7071 100.4912 -13.9696)" fill="#FFFFFF" width="9.756" height="2"/>
	</g>
	
		<rect x="72.953" y="123.665" transform="matrix(0.7071 0.7071 -0.7071 0.7071 110.9473 -18.5215)" fill="#FFFFFF" width="9.756" height="2"/>
	
		<rect x="82.971" y="133.682" transform="matrix(0.7071 0.7071 -0.7071 0.7071 120.9649 -22.6709)" fill="#FFFFFF" width="9.756" height="2"/>
	
		<rect x="92.988" y="143.7" transform="matrix(0.7071 0.7071 -0.7071 0.7071 130.9825 -26.8203)" fill="#FFFFFF" width="9.756" height="2"/>
	
		<rect x="103.006" y="153.717" transform="matrix(0.7071 0.7071 -0.7071 0.7071 141.0001 -30.9697)" fill="#FFFFFF" width="9.756" height="2"/>
	
		<rect x="82.971" y="60.043" transform="matrix(0.7071 -0.7071 0.7071 0.7071 -17.4333 79.9973)" fill="#FFFFFF" width="9.756" height="2"/>
	
		<rect x="13.535" y="35.267" fill="none" stroke="#5B5B5B" stroke-linecap="round" stroke-linejoin="round" stroke-miterlimit="10" width="156.939" height="122.229"/>
	<path fill="#F1B903" stroke="#F1B903" stroke-linecap="round" stroke-linejoin="round" stroke-miterlimit="10" d="M130.729,44.618
		c0-13.582-9.555-24.59-21.344-24.59c-11.79,0-21.345,11.008-21.345,24.59c-2.642,20.935,22.837,48.535,22.837,48.535
		C134.616,62.04,130.729,44.618,130.729,44.618z"/>
</g>
</svg>
