<?xml version="1.0" encoding="utf-8"?>
<!-- Generator: Adobe Illustrator 16.0.0, SVG Export Plug-In . SVG Version: 6.00 Build 0)  -->
<!DOCTYPE svg PUBLIC "-//W3C//DTD SVG 1.1//EN" "http://www.w3.org/Graphics/SVG/1.1/DTD/svg11.dtd">
<svg version="1.1" id="Layer_1" xmlns="http://www.w3.org/2000/svg" xmlns:xlink="http://www.w3.org/1999/xlink" x="0px" y="0px"
	 width="152px" height="152px" viewBox="0 0 152 152" enable-background="new 0 0 152 152" xml:space="preserve">
<g id="Layer_2">
</g>
<g>
	<polygon fill="#2074A8" points="104.771,66.44 104.771,40.633 50.063,40.633 50.063,66.44 12.116,66.44 12.116,144.661 
		139.884,144.661 139.884,66.44 	"/>
	
		<rect x="18.928" y="72.933" fill="#FFFFFF" stroke="#5B5B5B" stroke-linecap="round" stroke-linejoin="round" stroke-miterlimit="10" width="9.309" height="9.309"/>
	
		<rect x="36.092" y="72.933" fill="#FFFFFF" stroke="#5B5B5B" stroke-linecap="round" stroke-linejoin="round" stroke-miterlimit="10" width="9.308" height="9.309"/>
	
		<rect x="53.257" y="72.933" fill="#FFFFFF" stroke="#5B5B5B" stroke-linecap="round" stroke-linejoin="round" stroke-miterlimit="10" width="9.308" height="9.309"/>
	
		<rect x="18.928" y="90.153" fill="#FFFFFF" stroke="#5B5B5B" stroke-linecap="round" stroke-linejoin="round" stroke-miterlimit="10" width="9.309" height="9.308"/>
	
		<rect x="36.092" y="90.153" fill="#FFFFFF" stroke="#5B5B5B" stroke-linecap="round" stroke-linejoin="round" stroke-miterlimit="10" width="9.308" height="9.308"/>
	
		<rect x="53.257" y="90.153" fill="#FFFFFF" stroke="#5B5B5B" stroke-linecap="round" stroke-linejoin="round" stroke-miterlimit="10" width="9.308" height="9.308"/>
	
		<rect x="18.928" y="107.374" fill="#FFFFFF" stroke="#5B5B5B" stroke-linecap="round" stroke-linejoin="round" stroke-miterlimit="10" width="9.309" height="9.309"/>
	
		<rect x="36.092" y="107.374" fill="#FFFFFF" stroke="#5B5B5B" stroke-linecap="round" stroke-linejoin="round" stroke-miterlimit="10" width="9.308" height="9.309"/>
	
		<rect x="53.257" y="107.374" fill="#FFFFFF" stroke="#5B5B5B" stroke-linecap="round" stroke-linejoin="round" stroke-miterlimit="10" width="9.308" height="9.309"/>
	
		<rect x="71.771" y="72.933" fill="#FFFFFF" stroke="#5B5B5B" stroke-linecap="round" stroke-linejoin="round" stroke-miterlimit="10" width="9.31" height="9.309"/>
	
		<rect x="88.936" y="72.933" fill="#FFFFFF" stroke="#5B5B5B" stroke-linecap="round" stroke-linejoin="round" stroke-miterlimit="10" width="9.308" height="9.309"/>
	
		<rect x="106.101" y="72.933" fill="#FFFFFF" stroke="#5B5B5B" stroke-linecap="round" stroke-linejoin="round" stroke-miterlimit="10" width="9.308" height="9.309"/>
	
		<rect x="71.771" y="90.153" fill="#FFFFFF" stroke="#5B5B5B" stroke-linecap="round" stroke-linejoin="round" stroke-miterlimit="10" width="9.31" height="9.308"/>
	
		<rect x="88.936" y="90.153" fill="#FFFFFF" stroke="#5B5B5B" stroke-linecap="round" stroke-linejoin="round" stroke-miterlimit="10" width="9.308" height="9.308"/>
	
		<rect x="106.101" y="90.153" fill="#FFFFFF" stroke="#5B5B5B" stroke-linecap="round" stroke-linejoin="round" stroke-miterlimit="10" width="9.308" height="9.308"/>
	
		<rect x="71.771" y="107.374" fill="#FFFFFF" stroke="#5B5B5B" stroke-linecap="round" stroke-linejoin="round" stroke-miterlimit="10" width="9.31" height="9.309"/>
	
		<rect x="88.936" y="107.374" fill="#FFFFFF" stroke="#5B5B5B" stroke-linecap="round" stroke-linejoin="round" stroke-miterlimit="10" width="9.308" height="9.309"/>
	
		<rect x="106.101" y="107.374" fill="#FFFFFF" stroke="#5B5B5B" stroke-linecap="round" stroke-linejoin="round" stroke-miterlimit="10" width="9.308" height="9.309"/>
	
		<rect x="123.715" y="73.206" fill="#FFFFFF" stroke="#5B5B5B" stroke-linecap="round" stroke-linejoin="round" stroke-miterlimit="10" width="9.31" height="9.309"/>
	
		<rect x="123.715" y="90.426" fill="#FFFFFF" stroke="#5B5B5B" stroke-linecap="round" stroke-linejoin="round" stroke-miterlimit="10" width="9.31" height="9.31"/>
	
		<rect x="123.715" y="107.648" fill="#FFFFFF" stroke="#5B5B5B" stroke-linecap="round" stroke-linejoin="round" stroke-miterlimit="10" width="9.31" height="9.307"/>
	
		<rect x="53.257" y="125.114" fill="#FFFFFF" stroke="#5B5B5B" stroke-linecap="round" stroke-linejoin="round" stroke-miterlimit="10" width="44.986" height="19.181"/>
	<path fill="#FFFFFF" stroke="#5B5B5B" stroke-linecap="round" stroke-linejoin="round" stroke-miterlimit="10" d="M87.801,56.377
		c0,5.738-4.649,10.388-10.388,10.388c-5.733,0-10.382-4.649-10.382-10.388c0-5.732,4.649-10.382,10.382-10.382
		C83.151,45.996,87.801,50.645,87.801,56.377z"/>
	<g>
		<rect x="70.934" y="55.642" fill="#DB4040" stroke="#DB4040" stroke-miterlimit="10" width="12.966" height="1.471"/>
		<rect x="76.681" y="49.896" fill="#DB4040" stroke="#DB4040" stroke-miterlimit="10" width="1.475" height="12.966"/>
	</g>
	<path fill="#F1B903" d="M91.445,22.129c0-8.169-6.621-14.79-14.789-14.79c-8.171,0-14.79,6.621-14.79,14.79
		c-1.831,12.591,15.823,29.19,15.823,29.19C94.139,32.607,91.445,22.129,91.445,22.129z"/>
	<g id="Layer_3">
	</g>
</g>
</svg>
