<?xml version="1.0" encoding="utf-8"?>
<!-- Generator: Adobe Illustrator 16.0.0, SVG Export Plug-In . SVG Version: 6.00 Build 0)  -->
<!DOCTYPE svg PUBLIC "-//W3C//DTD SVG 1.1//EN" "http://www.w3.org/Graphics/SVG/1.1/DTD/svg11.dtd">
<svg version="1.1" id="Layer_1" xmlns="http://www.w3.org/2000/svg" xmlns:xlink="http://www.w3.org/1999/xlink" x="0px" y="0px"
	 width="152px" height="152px" viewBox="0 0 152 152" enable-background="new 0 0 152 152" xml:space="preserve">
<g id="Layer_2">
</g>
<g>
	<polygon fill="#DB4040" stroke="#DB4040" stroke-linecap="round" stroke-linejoin="round" stroke-miterlimit="10" points="
		50.003,142.729 90.252,142.729 90.252,99.604 108.461,99.604 70.128,61.271 33.711,99.604 50.003,99.604 	"/>
	<g>
		<path fill="#DB4040" d="M104.15,122.608c0,2.118-0.41,3.708-1.23,4.771c-0.818,1.063-2.02,1.597-3.604,1.597
			c-1.52,0-2.691-0.548-3.521-1.638c-0.828-1.09-1.242-2.666-1.242-4.729c0-4.205,1.588-6.311,4.764-6.311
			c1.557,0,2.75,0.547,3.584,1.638C103.732,119.026,104.15,120.584,104.15,122.608z M98.033,122.637
			c0,1.169,0.104,2.041,0.312,2.615c0.205,0.576,0.539,0.863,1,0.863c0.883,0,1.326-1.16,1.326-3.479
			c0-2.301-0.443-3.452-1.326-3.452c-0.461,0-0.795,0.282-1,0.85C98.137,120.6,98.033,121.467,98.033,122.637z M113.65,116.588
			l-11.197,20.188h-3.314l11.197-20.188H113.65z M118.289,130.672c0,2.107-0.41,3.693-1.229,4.756
			c-0.818,1.063-2.021,1.596-3.604,1.596c-1.52,0-2.693-0.546-3.521-1.637c-0.828-1.09-1.242-2.661-1.242-4.715
			c0-4.207,1.588-6.31,4.764-6.31c1.555,0,2.75,0.544,3.582,1.636C117.873,127.09,118.289,128.648,118.289,130.672z M112.172,130.7
			c0,1.169,0.105,2.041,0.312,2.617c0.207,0.574,0.539,0.86,1,0.86c0.883,0,1.326-1.158,1.326-3.479
			c0-2.301-0.443-3.451-1.326-3.451c-0.461,0-0.793,0.282-1,0.848C112.277,128.664,112.172,129.53,112.172,130.7z"/>
	</g>
	<g id="Layer_3">
	</g>
</g>
</svg>
