<?xml version="1.0" encoding="utf-8"?>
<!-- Generator: Adobe Illustrator 16.0.0, SVG Export Plug-In . SVG Version: 6.00 Build 0)  -->
<!DOCTYPE svg PUBLIC "-//W3C//DTD SVG 1.1//EN" "http://www.w3.org/Graphics/SVG/1.1/DTD/svg11.dtd">
<svg version="1.1" id="Layer_1" xmlns="http://www.w3.org/2000/svg" xmlns:xlink="http://www.w3.org/1999/xlink" x="0px" y="0px"
	 width="152px" height="152px" viewBox="0 0 152 152" enable-background="new 0 0 152 152" xml:space="preserve">
<g>
	<polygon fill="#DB4040" stroke="#DB4040" stroke-linecap="round" stroke-linejoin="round" stroke-miterlimit="10" points="
		31.117,37.103 42.118,48.104 52.569,37.103 	"/>
	
		<rect x="14.128" y="6.544" fill="#DB4040" stroke="#DB4040" stroke-linecap="round" stroke-linejoin="round" stroke-miterlimit="10" width="55.429" height="30.559"/>
	<g>
		<path fill="#DB4040" stroke="#DB4040" stroke-linecap="round" stroke-linejoin="round" stroke-miterlimit="10" d="M47.783,62.07
			c0,3.788-3.074,6.86-6.862,6.86c-3.789,0-6.861-3.072-6.861-6.86c0-3.792,3.072-6.864,6.861-6.864
			C44.709,55.207,47.783,58.278,47.783,62.07z"/>
		<path fill="#DB4040" stroke="#DB4040" stroke-linecap="round" stroke-linejoin="round" stroke-miterlimit="10" d="M37.993,144.273
			c-2.4,2.658-4.36,0-4.36,0V117.31h4.36V144.273z"/>
		<path fill="#DB4040" stroke="#DB4040" stroke-linecap="round" stroke-linejoin="round" stroke-miterlimit="10" d="M47.578,144.273
			c-2.401,2.658-4.361,0-4.361,0V117.31h4.361V144.273z"/>
		<path fill="#DB4040" stroke="#DB4040" stroke-linecap="round" stroke-linejoin="round" stroke-miterlimit="10" d="M21.011,104.063
			c-3.648,1.688-3.833-2.082-3.833-2.082l15.621-28.761l3.831,2.083L21.011,104.063z"/>
		<path fill="#DB4040" stroke="#DB4040" stroke-linecap="round" stroke-linejoin="round" stroke-miterlimit="10" d="M64.608,101.559
			c-0.465,3.992-3.776,2.183-3.776,2.183l-16.377-28.34l3.776-2.181L64.608,101.559z"/>
		<polygon fill="#DB4040" stroke="#DB4040" stroke-linecap="round" stroke-linejoin="round" stroke-miterlimit="10" points="
			25.711,116.196 54.531,116.196 47.783,73.221 33.449,73.221 		"/>
	</g>
	<g>
		<circle fill="#2074A8" stroke="#2074A8" stroke-linejoin="round" stroke-miterlimit="10" cx="110.65" cy="60.422" r="6.861"/>
		<path fill="#2074A8" stroke="#2074A8" stroke-linejoin="round" stroke-miterlimit="10" d="M123.367,83.605h0.143
			c0,0-0.984-5.006-2.814-8.475l-0.025-0.083l-0.016,0.004c-0.959-1.795-2.143-3.166-3.541-3.166c-0.164,0-0.287,0.014-0.434,0.018
			c-0.021-0.002-0.039-0.018-0.061-0.018h-12.16c-0.123,0-0.23,0.061-0.346,0.097c-1.164,0.303-2.164,1.516-2.994,3.069
			l-0.018-0.004l-0.029,0.089c-1.824,3.468-2.811,8.469-2.811,8.469h0.143l-7.143,22.656c0,0,0.902,3.664,4.16,1.311l7.498-23.783
			v26.628c0,0.021,0.01,0.039,0.01,0.06h-0.01v33.512c0,0,1.961,3.302,4.361,0v-31.447h6.514v31.447c0,0,1.959,3.302,4.361,0
			v-33.512h-0.008c0-0.021,0.008-0.038,0.008-0.06V81.585l8.191,25.987c3.258,2.354,4.16-1.311,4.16-1.311L123.367,83.605z"/>
	</g>
	<polygon fill="#2074A8" stroke="#2074A8" stroke-linejoin="round" stroke-miterlimit="10" points="82.441,7.727 82.441,38.286 
		99.432,38.286 110.432,49.287 120.883,38.286 137.871,38.286 137.871,7.727 	"/>
</g>
</svg>
