<?xml version="1.0" encoding="utf-8"?>
<!-- Generator: Adobe Illustrator 16.0.0, SVG Export Plug-In . SVG Version: 6.00 Build 0)  -->
<!DOCTYPE svg PUBLIC "-//W3C//DTD SVG 1.1//EN" "http://www.w3.org/Graphics/SVG/1.1/DTD/svg11.dtd">
<svg version="1.1" id="Layer_1" xmlns="http://www.w3.org/2000/svg" xmlns:xlink="http://www.w3.org/1999/xlink" x="0px" y="0px"
	 width="85px" height="85px" viewBox="0 0 85 85" enable-background="new 0 0 85 85" xml:space="preserve">
<g>
	<circle fill="none" stroke="#496372" stroke-miterlimit="10" cx="42.5" cy="42.501" r="38.016"/>
	<path fill="#DB4040" stroke="#DB4040" stroke-linecap="round" stroke-linejoin="round" stroke-miterlimit="10" d="M57.226,60.914
		c0,2.182-1.768,3.948-3.947,3.948H31.722c-2.18,0-3.947-1.767-3.947-3.948V28.313c0-2.181,1.768-3.947,3.947-3.947h21.557
		c2.18,0,3.947,1.767,3.947,3.947V60.914z"/>
	<path fill="#FFFFFF" stroke="#FFFFFF" stroke-linecap="round" stroke-linejoin="round" stroke-miterlimit="10" d="M54.614,58.836
		c0,1.902-1.453,3.444-3.246,3.444H33.633c-1.794,0-3.247-1.542-3.247-3.444V30.392c0-1.901,1.453-3.443,3.247-3.443h17.735
		c1.793,0,3.246,1.542,3.246,3.443V58.836z"/>
	
		<rect x="36.083" y="21.819" fill="#DB4040" stroke="#DB4040" stroke-linecap="round" stroke-linejoin="round" stroke-miterlimit="10" width="12.834" height="5.665"/>
	
		<rect x="39.226" y="20.138" fill="#DB4040" stroke="#DB4040" stroke-linecap="round" stroke-linejoin="round" stroke-miterlimit="10" width="6.549" height="2.125"/>
	
		<circle fill="#DB4040" stroke="#DB4040" stroke-linecap="round" stroke-linejoin="round" stroke-miterlimit="10" cx="34.718" cy="36.503" r="0.84"/>
	
		<circle fill="#DB4040" stroke="#DB4040" stroke-linecap="round" stroke-linejoin="round" stroke-miterlimit="10" cx="34.718" cy="42.167" r="0.84"/>
	
		<circle fill="#DB4040" stroke="#DB4040" stroke-linecap="round" stroke-linejoin="round" stroke-miterlimit="10" cx="34.718" cy="47.832" r="0.84"/>
	
		<circle fill="#DB4040" stroke="#DB4040" stroke-linecap="round" stroke-linejoin="round" stroke-miterlimit="10" cx="34.718" cy="53.497" r="0.84"/>
	
		<line fill="none" stroke="#DB4040" stroke-linecap="round" stroke-linejoin="round" stroke-miterlimit="10" x1="37.997" y1="36.503" x2="49.7" y2="36.503"/>
	
		<line fill="none" stroke="#DB4040" stroke-linecap="round" stroke-linejoin="round" stroke-miterlimit="10" x1="37.997" y1="42.167" x2="49.7" y2="42.167"/>
	
		<line fill="none" stroke="#DB4040" stroke-linecap="round" stroke-linejoin="round" stroke-miterlimit="10" x1="37.997" y1="47.832" x2="49.7" y2="47.832"/>
	
		<line fill="none" stroke="#DB4040" stroke-linecap="round" stroke-linejoin="round" stroke-miterlimit="10" x1="37.997" y1="53.497" x2="49.7" y2="53.497"/>
</g>
</svg>
